<?xml version="1.0" encoding="utf-8"?>
<!-- Generator: Adobe Illustrator 24.2.0, SVG Export Plug-In . SVG Version: 6.00 Build 0)  -->
<svg version="1.1" id="图层_1" xmlns="http://www.w3.org/2000/svg" xmlns:xlink="http://www.w3.org/1999/xlink" x="0px" y="0px"
	 viewBox="0 0 461.1 180.9" style="enable-background:new 0 0 461.1 180.9;" xml:space="preserve">
<style type="text/css">
	.st0{fill:#7DC5EB;}
	.st1{fill:#00A4DD;}
	.st2{fill:#FEFFFF;}
	.st3{fill:#FFFFFF;}
	.st4{font-family:'MicrosoftYaHeiLight';}
	.st5{font-size:49.0258px;}
	.st6{fill:none;stroke:#FFFFFF;stroke-miterlimit:10;}
</style>
<g>
	<path class="st0" d="M364.1,168.9H96.4c-43.1,0-78.4-35.4-78.4-78.4s35.4-78.4,78.4-78.4h267.7c43.1,0,78.4,35.4,78.4,78.4
		S407.2,168.9,364.1,168.9L364.1,168.9z"/>
	<path class="st1" d="M374.6,147.9H85.9c-37.4,0-68-30.5-68-68s30.5-68,68-68h288.7c37.4,0,68,30.5,68,68
		C442.5,117.4,412,147.9,374.6,147.9L374.6,147.9z"/>
	<path class="st0" d="M61.4,80c0,25.3,20.5,45.8,45.8,45.8S153,105.3,153,80s-20.5-45.8-45.8-45.8S61.4,54.7,61.4,80L61.4,80z"/>
	<path class="st2" d="M72.1,80c0,19.5,15.7,35.1,34.9,35.1c19.5,0,35.1-15.7,35.1-34.9c0-19.5-15.7-35.1-34.9-35.1
		S72.1,60.5,72.1,80L72.1,80z"/>
	<path class="st0" d="M120.2,99.8l-13-6.9l-13,6.9l2.5-14.4L86.2,75.2l14.4-2.1l6.5-13l6.5,13l14.4,2.1l-10.5,10L120.2,99.8z"/>
</g>
<text transform="matrix(1 0 0 1 211.0965 96.0275)" class="st3 st4 st5">出    租</text>
<text transform="matrix(1 0 0 1 211.0965 96.0275)" class="st6 st4 st5">出    租</text>
</svg>
