<?xml version="1.0" standalone="no"?><!DOCTYPE svg PUBLIC "-//W3C//DTD SVG 1.1//EN" "http://www.w3.org/Graphics/SVG/1.1/DTD/svg11.dtd"><svg t="1746666916180" class="icon" viewBox="0 0 2771 1024" version="1.1" xmlns="http://www.w3.org/2000/svg" p-id="915" xmlns:xlink="http://www.w3.org/1999/xlink" width="86.59375" height="32"><path d="M2259.626667 1024h-1747.626667C230.741333 1024 0 793.258667 0 512S230.741333 0 512 0h1747.626667C2540.885333 0 2771.626667 230.741333 2771.626667 512S2540.885333 1024 2259.626667 1024z" fill="#FF8716" p-id="916"></path><path d="M2327.893333 887.466667h-1884.16C199.338667 887.466667 0 688.128 0 443.733333S199.338667 0 443.733333 0h1884.16C2572.288 0 2771.626667 199.338667 2771.626667 443.733333S2572.288 887.466667 2327.893333 887.466667z" fill="#FF6600" p-id="917"></path><path d="M1482.752 449.194667v-13.653334h-94.208v140.629334h105.130667v-102.4h30.037333v143.36h-30.037333v-12.288H1223.338667v-129.706667h30.037333v102.4h103.765333V435.541333h-124.245333v-129.706666h30.037333v102.4h94.208V273.066667h31.402667v135.168h94.208v-102.4h30.037333v141.994666h-30.037333zM2064.384 278.528l23.210667-13.653333c10.922667 13.653333 20.48 27.306667 28.672 39.594666l-13.653334 8.192h132.437334v21.845334h-128.341334v25.941333h116.053334V382.293333h-116.053334v25.941334h116.053334v21.845333h-116.053334v27.306667h135.168v21.845333h-279.893333v13.653333h-27.306667v-121.514666c-9.557333 10.922667-20.48 21.845333-30.037333 32.768-5.461333-6.826667-10.922667-15.018667-16.384-23.210667 35.498667-32.768 64.170667-70.997333 84.650667-114.688l25.941333 9.557333c-6.826667 12.288-13.653333 24.576-20.48 35.498667h109.226667c-8.192-10.922667-15.018667-21.845333-23.210667-32.768z m-128.341333 229.376h271.701333v116.053333h-27.306667v-17.749333h-218.453333v17.749333h-27.306667v-116.053333z m25.941333-147.456h117.418667v-25.941333h-116.053334l-1.365333 2.730666v23.210667z m0 47.786667h117.418667V382.293333h-117.418667v25.941334z m0 49.152h117.418667v-27.306667h-117.418667v27.306667z m218.453333 73.728h-218.453333v51.882666h218.453333v-51.882666z" fill="#FFFFFF" p-id="918"></path><path d="M283.989333 443.733333c0 165.205333 133.802667 299.008 299.008 299.008s299.008-133.802667 299.008-299.008c0-165.205333-133.802667-299.008-299.008-299.008s-299.008 133.802667-299.008 299.008z" fill="#FFCA1A" p-id="919"></path><path d="M353.621333 443.733333c0 126.976 102.4 229.376 228.010667 229.376 126.976 0 229.376-102.4 229.376-228.010666 0-126.976-102.4-229.376-228.010667-229.376s-229.376 101.034667-229.376 228.010666z" fill="#FFB305" p-id="920"></path><path d="M667.648 573.44l-84.650667-45.056-84.650666 45.056 16.384-94.208-68.266667-66.901333 94.208-13.653334 42.325333-84.650666 42.325334 84.650666 94.208 13.653334-68.266667 65.536 16.384 95.573333z" fill="#FFFFFF" p-id="921"></path></svg>